<svg width="791" height="993" viewBox="0 0 791 993" fill="none" xmlns="http://www.w3.org/2000/svg">
<path d="M163.557 237.754C238.193 158.318 154.291 169.06 196.257 111.356C257.663 26.9245 300.395 112.119 340.536 111.356C370.812 110.781 421.808 135.782 457.357 160.816C485.285 180.484 451.933 275.381 463.535 317.19C472.548 349.668 550.84 411.912 548.967 448.728C544.523 536.073 518.42 515.525 444.127 552.394C392.149 578.189 368.594 692.28 319.069 682.395C202.248 682.395 259.914 631.456 216.198 599.89C172.545 568.371 227.039 546.79 216.198 494.64C202.791 430.148 127.097 429.383 149.08 377.641C164.322 341.764 88.9218 317.19 163.557 237.754Z" fill="#78AA6B"/>
<path d="M725.442 829.246C650.807 908.682 734.709 897.94 692.742 955.644C631.337 1040.08 588.605 954.881 548.464 955.644C518.188 956.219 467.192 931.218 431.643 906.184C403.715 886.516 437.067 791.619 425.465 749.81C416.452 717.332 338.16 655.088 340.033 618.272C344.477 530.927 370.58 551.475 444.872 514.606C496.851 488.811 520.406 374.72 569.931 384.605C686.752 384.605 629.086 435.544 672.802 467.11C716.455 498.629 661.961 520.21 672.802 572.36C686.209 636.852 761.903 637.617 739.92 689.359C724.678 725.236 800.078 749.81 725.442 829.246Z" fill="#78AA6B"/>
<path d="M405.558 829.246C480.193 908.682 396.291 897.94 438.258 955.644C499.663 1040.08 542.395 954.881 582.536 955.644C612.812 956.219 663.808 931.218 699.357 906.184C727.285 886.516 693.933 791.619 705.535 749.81C714.548 717.332 792.84 655.088 790.967 618.272C786.523 530.927 760.42 551.475 686.128 514.606C634.149 488.811 610.594 374.72 561.069 384.605C444.248 384.605 501.914 435.544 458.198 467.11C414.545 498.629 469.039 520.21 458.198 572.36C444.791 636.852 369.097 637.617 391.08 689.359C406.322 725.236 330.922 749.81 405.558 829.246Z" fill="#CDE9C6" fill-opacity="0.4"/>
<path d="M405.558 829.246C480.193 908.682 396.291 897.94 438.258 955.644C499.663 1040.08 542.395 954.881 582.536 955.644C612.812 956.219 663.808 931.218 699.357 906.184C727.285 886.516 693.933 791.619 705.535 749.81C714.548 717.332 792.84 655.088 790.967 618.272C786.523 530.927 760.42 551.475 686.128 514.606C634.149 488.811 610.594 374.72 561.069 384.605C444.248 384.605 501.914 435.544 458.198 467.11C414.545 498.629 469.039 520.21 458.198 572.36C444.791 636.852 369.097 637.617 391.08 689.359C406.322 725.236 330.922 749.81 405.558 829.246Z" fill="#A0D039" fill-opacity="0.55"/>
<path d="M418.118 569.814C316.044 608.042 396.043 635.521 332.881 668.709C240.462 717.27 239.823 621.961 203.485 604.889C176.077 592.013 141.4 547.033 120.592 508.857C104.244 478.864 176.133 408.509 184.221 365.88C190.505 332.766 147.821 242.311 165.786 210.121C208.408 133.752 222.729 163.726 305.667 163.523C363.694 163.38 435.285 71.477 475.329 102.25C580.1 153.924 505.85 174.101 531.094 221.748C556.302 269.325 497.883 264.576 484.538 316.141C468.035 379.911 535.583 414.079 492.98 450.76C463.44 476.195 520.192 531.586 418.118 569.814Z" fill="#CDE9C6" fill-opacity="0.4"/>
<path d="M418.118 569.814C316.044 608.042 396.043 635.521 332.881 668.709C240.462 717.27 239.823 621.961 203.485 604.889C176.077 592.013 141.4 547.033 120.592 508.857C104.244 478.864 176.133 408.509 184.221 365.88C190.505 332.766 147.821 242.311 165.786 210.121C208.408 133.752 222.729 163.726 305.667 163.523C363.694 163.38 435.285 71.477 475.329 102.25C580.1 153.924 505.85 174.101 531.094 221.748C556.302 269.325 497.883 264.576 484.538 316.141C468.035 379.911 535.583 414.079 492.98 450.76C463.44 476.195 520.192 531.586 418.118 569.814Z" fill="#A0D039" fill-opacity="0.55"/>
</svg>
